<?xml version="1.0" encoding="utf-8"?>
<svg version="1.1" id="LOGO" xmlns="http://www.w3.org/2000/svg" xmlns:xlink="http://www.w3.org/1999/xlink" x="0px"
  y="0px" viewBox="0 0 793.1 304.4" style="enable-background:new 0 0 793.1 304.4;" xml:space="preserve">
  <style type="text/css">
    .st0 {
      fill: #FFFFFF;
    }
  </style>
  <path class="st0" d="M219,38l-27,70.8H83.2v29.8h97.4l-23.1,60.5H83.2v67.2H11.1c-3.9,0-7-3.1-7-7V45c0-3.9,3.1-7,7-7L219,38
			L219,38z" />
  <polygon class="st0"
    points="350,38 246.4,38 159.1,266.3 230.6,266.3 249.2,266.3 347.4,266.3 379.1,266.3 437.2,266.3 	" />
  <polygon class="st0" points="720.2,159.7 740.5,167.3 740.5,151 720.2,158.5 		" />
  <path class="st0" d="M745.3,83.5c-4.8,0-7.6,2.9-7.6,7.8v10.7h14.8V91.5C752.4,86.4,749.8,83.5,745.3,83.5z" />
  <path class="st0" d="M782,38H624.5l0,100L543.5,38H377.5l87.2,228.3h78.8c0,0,0-86.3,0-102.4l83.2,102.4H782c3.9,0,7-3.1,7-7V45
			C789,41.2,785.9,38,782,38z M703.3,237.1v-19.8h44.8v-27l-44.8-17.1v-28.1l61.9-23.7h-61.9V88.4c0-7.3,1.5-12.7,4.4-16.1
			c3-3.4,6.7-5.1,11.3-5.1c5.2,0,9,2.1,11.3,6.3h0.3c2.8-6.6,7.9-9.9,15.3-9.9c5.7,0,10.2,1.9,13.9,5.8c3.6,3.8,5.4,9.7,5.4,17.5
			v34.6v22.2l-10.7,3.6v23.8l10.7,3.5v14.6l0,0v48L703.3,237.1L703.3,237.1z" />
  <path class="st0" d="M723,85.3c-4.4,0-7,2.8-7,7.6v9.2h13.8V91.6C729.9,87.9,727.1,85.3,723,85.3z" />
</svg>